Simulation
nRows=15
nColumns=15
endheader
time  TH_x TH_y TH_z SC_y  SC_z  SC_x  AC_y  AC_z  AC_x  GH_y  GH_z  GH_yy  EL_x  PS_y
1.9499999999999993  0.000000  0.000000  0.000000  -28.91296296453378  16.012040641699627  22.246651848478542  58.94158139484424  12.503093109967017  6.7549628388540945  47.821821880077714  57.03415640656661  -45.72272828110243  22.349320143975778  0.000000
1.9889999999999992  0.000000  0.000000  0.000000  -28.4123064896714  15.634805968858743  21.83697078638403  58.760667250905726  12.124331995112545  5.852599937331507  48.15665606671284  56.173201247978184  -45.21300977155562  22.560594778905447  0.000000
2.027999999999999  0.000000  0.000000  0.000000  -27.85971899455728  15.200860620541633  21.396783339589845  58.57461433094936  11.700497750144317  4.868846268852358  48.53111190228844  55.21646689500951  -44.74400440396695  22.764052387752436  0.000000
2.0669999999999993  0.000000  0.000000  0.000000  -27.2643677350817  14.71321735119717  20.92475183681144  58.387079956098916  11.238314698292044  3.822904266199  48.94349919133157  54.17930051468713  -44.31970856076003  22.94580213181544  0.000000
2.1059999999999994  0.000000  0.000000  0.000000  -26.640208264577332  14.176599058641491  20.417586356454088  58.19950177227999  10.746166009687993  2.7348226929677364  49.37997674676606  53.07884097257886  -43.909108748900934  23.095607523322748  0.000000
2.144999999999999  0.000000  0.000000  0.000000  -26.005231838358313  13.596227546396202  19.869319444147273  58.01400677241588  10.234155107171974  1.6252568084155308  49.8157153746575  51.93340861554433  -43.46082209364411  23.20767006601578  0.000000
2.1839999999999993  0.000000  0.000000  0.000000  -25.380517353480165  12.975770523878499  19.27009512787291  57.83548663331291  9.71329354088927  0.5154258607384148  50.220449421359426  50.76161141691192  -42.92597253323984  23.282469546342984  0.000000
2.2229999999999994  0.000000  0.000000  0.000000  -24.789139197921152  12.31656561493356  18.60562183871005  57.671449984992606  9.194393695390094  -0.572672973071353  50.564626657465865  49.58107091992469  -42.274005363952746  23.327621021295545  0.000000
2.261999999999999  0.000000  0.000000  0.000000  -24.255004379380356  11.619198614732166  17.858166421716028  57.529225491440464  8.687819065474157  -1.6157990060412846  50.82292946067751  48.40558275187535  -41.49181769314766  23.357407042478282  0.000000
2.3009999999999993  0.000000  0.000000  0.000000  -23.800171678554893  10.885833690259005  17.008927726067878  57.412012452215635  8.204308214117221  -2.589536327349641  50.974240476886045  47.241734923117804  -40.56916262919945  23.39099250048437  0.000000
2.339999999999999  0.000000  0.000000  0.000000  -23.440887520299697  10.122415770507885  16.0411300959441  57.315978284146816  7.755780789478247  -3.468912052422641  50.99881284880832  46.08620645865497  -39.48256059342835  23.44939923008964  0.000000
2.378999999999999  0.000000  0.000000  0.000000  -23.184735495109  9.339297791567203  14.942859793416108  57.230600395179074  7.3553494237126555  -4.230553757432933  50.87498165864829  44.92638296188933  -38.18958634894538  23.552881250821844  0.000000
2.4179999999999993  0.000000  0.000000  0.000000  -23.030987903285364  8.549828464235931  13.70914480196843  57.14175377087702  7.016223651865905  -4.855485483908248  50.57786405316016  43.74418272469566  -36.63723675200922  23.719191908699063  0.000000
2.456999999999999  0.000000  0.000000  0.000000  -22.973777741346037  7.767938997747554  12.342660537596338  57.036176557172915  6.749669293965519  -5.331715173992087  50.08042114171777  42.52255755146758  -34.777984708765445  23.962178126417022  0.000000
2.495999999999999  0.000000  0.000000  0.000000  -23.006067678496734  7.005930050827682  10.853557159997976  56.90465205960176  6.563293853624218  -5.655001829721704  49.35699270385976  41.250682669332946  -32.584337798138094  24.29009836513173  0.000000
